<?xml version="1.0" encoding="UTF-8"?>
<svg id="Layer_2" data-name="Layer 2" xmlns="http://www.w3.org/2000/svg" viewBox="0 0 512 512">
  <defs>
    <style>
      .cls-1 {
        fill: #fff;
      }

      .cls-2 {
        fill: #ecf0f1;
      }

      .cls-3 {
        fill: #bdc3c7;
      }

      .cls-4 {
        fill: #414f6b;
      }
    </style>
  </defs>
  <g id="Layer_1-2" data-name="Layer 1">
    <g>
      <path class="cls-1" d="m512,256c0,19.91-2.27,39.29-6.58,57.9-94.29,50.64-116.81,47.64-238.28,47.64-78.52,0-159.92,115.11-206.88,59.46C22.66,376.44,0,318.86,0,256,0,114.61,114.61,0,256,0s256,114.61,256,256Z"/>
      <path class="cls-3" d="m256,512c121.47,0,223.18-84.6,249.42-198.1l-48.08-68.9-45.35,29-84-118-142,182-50-20-75.73,102.99c46.96,55.65,117.21,91.01,195.73,91.01Z"/>
      <polygon class="cls-4" points="328 156 334.1 318 412 274 328 156"/>
      <polygon class="cls-2" points="89.62 421.57 136 433.57 181.11 489.07 263.61 417.07 230.61 340.57 328 156 186 338 136 318 86 386 89.62 421.57"/>
      <polygon class="cls-4" points="136 318 136 357 157.11 348.07 146.56 393.07 201.6 318 136 318"/>
      <polygon class="cls-4" points="310.11 414.07 349.1 355.54 418.1 334 451.1 401.79 412 374.04 334.1 456.07 310.11 414.07"/>
      <polygon class="cls-4" points="293.61 262.58 256 339.07 282.85 382.57 293.61 262.58"/>
      <polygon class="cls-2" points="431.6 288.08 451.1 346.57 475.1 322.57 431.6 288.08"/>
      <polygon class="cls-3" points="181.11 418.57 207 382.57 194.06 427.57 181.11 418.57"/>
    </g>
  </g>
</svg>